# xmcd
#
# Track frame offsets: 
#        150
#        17304
#        34360
#        47991
#        59409
#        75668
#        94153
#        109722
#        132780
#        149054
#        164807
#        180867
#        195058
#
# Disc length: 2823 seconds
#
# Revision: 2
# Processed by: cddbd v1.5.2PL0 Copyright (c) Steve Scherf et al.
# Submitted via: ExactAudioCopy v1.1
#
DISCID=aa0b050d
DTITLE=The Cash Box Kings - Black Toppin'
DYEAR=2013
DGENRE=Chicago Blues, Delta Blues
TTITLE0=Blues Falling Down On Me
TTITLE1=Black Toppin’
TTITLE2=Trying Really Hard (To Try and Get Along With You)
TTITLE3=Oscar's Jump
TTITLE4=Money, Marbles and Chalk
TTITLE5=My Tinai
TTITLE6=Too Late
TTITLE7=Walking Blues
TTITLE8=I Don't Wanna Fight
TTITLE9=Tom Cat Blues
TTITLE10=Hot Biscuit Baby
TTITLE11=Gimme Some of That
TTITLE12=Run Run Run
EXTD=
EXTT0=
EXTT1=
EXTT2=
EXTT3=
EXTT4=
EXTT5=
EXTT6=
EXTT7=
EXTT8=
EXTT9=
EXTT10=
EXTT11=
EXTT12=
PLAYORDER=
